<svg width="24"
  height="24"
  viewBox="0 0 24 24"
  fill="none"
  xmlns="http://www.w3.org/2000/svg">
  <path fill-rule="evenodd"
    clip-rule="evenodd"
    d="M2.4 0C1.07452 0 0 1.07452 0 2.4V21.6C0 22.9255 1.07452 24 2.4 24H21.6C22.9255 24 24 22.9255 24 21.6V2.4C24 1.07452 22.9255 0 21.6 0H2.4ZM15.236 12.6082L15.4555 10.7086C15.4621 10.6587 15.458 10.608 15.4435 10.5598C15.429 10.5116 15.4044 10.467 15.3714 10.429C15.3384 10.391 15.2978 10.3604 15.2521 10.3392C15.2064 10.3181 15.1567 10.3069 15.1064 10.3064H12.8905V8.71228C12.8905 7.99092 13.0869 7.50001 14.0946 7.50001H15.0273C15.1211 7.49893 15.2107 7.46101 15.2768 7.39441C15.3429 7.32782 15.3801 7.23791 15.3805 7.1441V5.54455C15.3816 5.44967 15.345 5.35822 15.2788 5.29023C15.2126 5.22224 15.1222 5.18326 15.0273 5.18183H13.5069C11.6523 5.18183 10.3841 6.34092 10.3841 8.47092V10.3064H8.88686C8.84 10.3069 8.79371 10.3167 8.75065 10.3351C8.70758 10.3536 8.66858 10.3804 8.6359 10.414C8.60321 10.4476 8.57747 10.4873 8.56017 10.5308C8.54286 10.5743 8.53432 10.6209 8.53504 10.6677L8.54322 12.5673C8.54268 12.614 8.55135 12.6604 8.56874 12.7038C8.58613 12.7472 8.6119 12.7867 8.64457 12.8201C8.67724 12.8536 8.71617 12.8802 8.75915 12.8986C8.80212 12.917 8.8483 12.9267 8.89504 12.9273H10.395L10.3855 18.5605C10.3848 18.6279 10.4107 18.6928 10.4578 18.7411C10.5048 18.7894 10.569 18.8171 10.6364 18.8182H12.6396C12.707 18.8175 12.7713 18.7901 12.8186 18.7421C12.8659 18.694 12.8922 18.6292 12.8919 18.5618L12.9014 12.9273H14.8869C14.9741 12.9264 15.058 12.8933 15.1224 12.8344C15.1868 12.7756 15.2272 12.695 15.236 12.6082Z"
    fill="#334C8C"/>
</svg>
