<svg width="24"
  height="24"
  viewBox="0 0 24 24"
  fill="none"
  xmlns="http://www.w3.org/2000/svg">
  <path fill-rule="evenodd"
    clip-rule="evenodd"
    d="M2.4 0C1.07452 0 0 1.07452 0 2.4V21.6C0 22.9255 1.07452 24 2.4 24H21.6C22.9255 24 24 22.9255 24 21.6V2.4C24 1.07452 22.9255 0 21.6 0H2.4ZM8.95091 7.04319C8.95118 7.41178 8.8421 7.77216 8.63746 8.07872C8.43282 8.38528 8.14184 8.62424 7.80133 8.76536C7.46083 8.90647 7.08611 8.94339 6.72462 8.87145C6.36312 8.79951 6.03109 8.62194 5.77056 8.36122C5.51002 8.10049 5.33269 7.76833 5.26102 7.40678C5.18934 7.04523 5.22654 6.67054 5.3679 6.33014C5.50927 5.98974 5.74844 5.69893 6.05515 5.49452C6.36186 5.29011 6.72233 5.18129 7.09091 5.18183C7.58423 5.18255 8.05711 5.37893 8.40582 5.72789C8.75452 6.07685 8.95055 6.54987 8.95091 7.04319ZM8.52955 10.1414V18.3573C8.52955 18.4795 8.48099 18.5968 8.39455 18.6832C8.30811 18.7696 8.19088 18.8182 8.06864 18.8182H6.10909C5.98685 18.8182 5.86962 18.7696 5.78318 18.6832C5.69675 18.5968 5.64818 18.4795 5.64818 18.3573V10.1414C5.64855 10.0194 5.69727 9.90249 5.78366 9.81634C5.87006 9.7302 5.98709 9.68183 6.10909 9.68183H8.06864C8.19064 9.68183 8.30767 9.7302 8.39407 9.81634C8.48047 9.90249 8.52919 10.0194 8.52955 10.1414ZM18.7732 18.3941V14.3887C18.7733 12.6537 18.7735 9.54547 15.4241 9.54547C13.9091 9.54547 13.1891 10.0991 12.7091 10.8205V10.1046C12.7087 9.99232 12.6639 9.8848 12.5844 9.80556C12.5049 9.72632 12.3972 9.68183 12.285 9.68183H10.2505C10.1382 9.68183 10.0306 9.72632 9.95106 9.80556C9.87157 9.8848 9.82673 9.99232 9.82637 10.1046V18.3941C9.82619 18.4498 9.83703 18.5051 9.85828 18.5566C9.87953 18.6081 9.91076 18.655 9.95018 18.6944C9.9896 18.7338 10.0364 18.765 10.088 18.7863C10.1395 18.8075 10.1947 18.8184 10.2505 18.8182H12.285C12.341 18.8187 12.3966 18.8082 12.4486 18.7871C12.5005 18.766 12.5477 18.7349 12.5875 18.6954C12.6273 18.656 12.6589 18.6091 12.6805 18.5573C12.7021 18.5056 12.7132 18.4501 12.7132 18.3941V13.9486C12.765 13.3514 13.0282 12.0205 14.3236 12.0205C15.8688 12.0205 15.8384 13.6897 15.8256 14.3927C15.8245 14.4484 15.8236 14.4982 15.8236 14.5405V18.3941C15.8235 18.4497 15.8343 18.5048 15.8554 18.5563C15.8766 18.6077 15.9077 18.6545 15.947 18.6939C15.9862 18.7333 16.0329 18.7646 16.0843 18.7859C16.1357 18.8072 16.1907 18.8182 16.2464 18.8182H18.3505C18.4061 18.8182 18.4612 18.8072 18.5125 18.7859C18.5639 18.7646 18.6106 18.7333 18.6499 18.6939C18.6891 18.6545 18.7202 18.6077 18.7414 18.5563C18.7626 18.5048 18.7734 18.4497 18.7732 18.3941Z"
    fill="#0B69C7"/>
</svg>
