<svg width="24"
  height="24"
  viewBox="0 0 24 24"
  fill="none"
  xmlns="http://www.w3.org/2000/svg">
  <path fill-rule="evenodd"
    clip-rule="evenodd"
    d="M2.4 0C1.07452 0 0 1.07452 0 2.4V21.6C0 22.9255 1.07452 24 2.4 24H21.6C22.9255 24 24 22.9255 24 21.6V2.4C24 1.07452 22.9255 0 21.6 0H2.4ZM17.6223 9.15544C18.0745 8.78981 18.4685 8.35761 18.7909 7.87362C18.8117 7.84607 18.8227 7.81232 18.822 7.77779C18.8213 7.74327 18.8091 7.70997 18.7872 7.68324C18.7654 7.6565 18.7352 7.63789 18.7015 7.63038C18.6678 7.62286 18.6325 7.62689 18.6014 7.64181C18.2987 7.77669 17.9842 7.88306 17.6618 7.95953C18.0182 7.62159 18.284 7.19961 18.435 6.73226C18.4442 6.70259 18.4442 6.67083 18.4351 6.64115C18.4259 6.61147 18.408 6.58525 18.3836 6.56594C18.3593 6.54662 18.3297 6.53511 18.2987 6.53291C18.2677 6.53072 18.2368 6.53793 18.21 6.55362C17.7617 6.81897 17.2777 7.01873 16.7727 7.14681C16.7433 7.15422 16.7131 7.15834 16.6827 7.15908C16.5896 7.15889 16.4998 7.12442 16.4304 7.06226C15.8933 6.58902 15.2018 6.32814 14.4859 6.32862C14.17 6.32917 13.856 6.37745 13.5545 6.47181C12.912 6.67248 12.3612 7.09423 12 7.66226C11.8299 7.92689 11.7054 8.21821 11.6318 8.52408C11.5466 8.87831 11.5231 9.24458 11.5623 9.6068C11.5638 9.62149 11.5623 9.63633 11.5578 9.6504C11.5534 9.66448 11.5461 9.67749 11.5364 9.68862C11.526 9.70008 11.5134 9.70926 11.4993 9.7156C11.4852 9.72194 11.47 9.72529 11.4545 9.72544H11.4464C10.4188 9.63214 9.42043 9.33349 8.51042 8.84722C7.60041 8.36094 6.79728 7.69693 6.14863 6.89453C6.13284 6.87532 6.11263 6.86022 6.08974 6.85052C6.06684 6.84081 6.04193 6.83679 6.01715 6.8388C5.99236 6.84081 5.96843 6.84879 5.94739 6.86206C5.92636 6.87532 5.90885 6.89348 5.89636 6.91499C5.56944 7.47949 5.43908 8.13651 5.5257 8.78307C5.61231 9.42963 5.91102 10.0292 6.37499 10.4877C6.14053 10.4319 5.91481 10.3443 5.70409 10.2273C5.68054 10.2145 5.65406 10.208 5.62727 10.2086C5.60047 10.2091 5.57428 10.2166 5.55128 10.2304C5.52829 10.2442 5.50928 10.2637 5.49614 10.2871C5.483 10.3104 5.47618 10.3368 5.47636 10.3636C5.46955 10.9333 5.62811 11.4928 5.93283 11.9742C6.23755 12.4556 6.67535 12.8383 7.19318 13.0759H7.13045C6.96439 13.0753 6.79872 13.0598 6.63545 13.0295C6.60925 13.0245 6.5822 13.0264 6.55694 13.035C6.53169 13.0435 6.50909 13.0585 6.49136 13.0785C6.47363 13.0984 6.46138 13.1226 6.4558 13.1487C6.45022 13.1747 6.45151 13.2018 6.45954 13.2273C6.62651 13.7424 6.93201 14.2016 7.34258 14.5547C7.75314 14.9078 8.25295 15.1411 8.78727 15.2291C7.88918 15.8326 6.8311 16.1536 5.74909 16.1509H5.40818C5.35802 16.1508 5.30924 16.1673 5.26951 16.1979C5.22977 16.2285 5.20132 16.2715 5.18863 16.32C5.17672 16.3693 5.18119 16.4211 5.20137 16.4676C5.22155 16.5141 5.25633 16.5527 5.30045 16.5777C6.53173 17.2931 7.93054 17.6695 9.35454 17.6686C10.2525 17.6742 11.1456 17.5361 12 17.2595C13.2983 16.8342 14.4577 16.0662 15.3559 15.0368C16.0283 14.2722 16.5547 13.3908 16.9091 12.4363C17.2515 11.5263 17.4298 10.5627 17.4355 9.59044V9.54544C17.4357 9.47065 17.4527 9.39686 17.485 9.32941C17.5173 9.26196 17.5642 9.20254 17.6223 9.15544Z"
    fill="#00A6DE"/>
</svg>
